<?xml version="1.0" encoding="UTF-8"?>
<svg width="20px" height="21px" viewBox="0 0 20 21" version="1.1" xmlns="http://www.w3.org/2000/svg" xmlns:xlink="http://www.w3.org/1999/xlink">
    <!-- Generator: Sketch 3.8.3 (29802) - http://www.bohemiancoding.com/sketch -->
    <title>Artboard 1</title>
    <desc>Created with Sketch.</desc>
    <defs></defs>
    <g id="Page-1" stroke="none" stroke-width="1" fill="none" fill-rule="evenodd">
        <g id="avatar_man" transform="translate(-1.000000, 0.000000)" fill="#BEC2CC">
            <g id="Page-1">
                <g id="avatar_man">
                    <path d="M21,21.1 L21,18.2 C20.7,17.1 19.6,17 18.7,16.6 C17.7,16.1 16.6,15.6 15.6,15.1 C15.3,15 15,14.9 14.7,14.8 C14.4,14.5 14,13.7 13.9,13.2 C13.7,13.2 13.6,13.1 13.4,13.1 L13.4,12.9 L13,12.9 C13.5,12.7 14.2,12.2 14.4,11.7 L14.8,9.4 L14.8,9.4 L14.9,9 L14.9,9 C15.3,9.1 15.7,8.4 15.9,7.6 C16,6.7 15.8,6 15.4,5.9 C15.3,5.9 15.2,5.9 15.1,6 C15.2,5.2 15.2,4.6 15.1,4 L15.1,3.7 C15.1,3.3 15.6,1.8 15.1,1.5 C15,1.4 14.8,1.5 14.6,1.5 C13.7,1.6 12.7,0.5 11.4,0.4 C9.7,0.2 8.1,1.1 7.9,2.2 C7.8,2.2 7.7,2.2 7.6,2.3 C7.2,2.4 6.8,3 6.7,4.1 C6.6,5.3 6.7,5.8 6.8,6.1 L6.8,6.1 C6.7,6 6.6,6 6.5,6 C6.1,6.1 5.9,6.8 6,7.7 C6.1,8.6 6.6,9.2 7,9.1 L7,9.1 L7.2,10.6 L7.4,11.8 C7.6,12.2 8.3,12.7 8.8,12.9 L8.4,12.9 L8.1,13.1 C7.9,13.5 7.6,14.4 7.2,14.7 C6.9,14.8 6.6,14.9 6.3,15 C5.3,15.5 4.2,16 3.2,16.5 C2.3,16.9 1.2,17.1 0.9,18.1 L0.9,21 L21,21 L21,21.1 L21,21.1 Z" id="Shape"></path>
                </g>
            </g>
        </g>
        <g id="Artboard-1"></g>
    </g>
</svg>